<?xml version="1.0" encoding="utf-8"?>
<!-- Generator: Adobe Illustrator 16.0.0, SVG Export Plug-In . SVG Version: 6.00 Build 0)  -->
<!DOCTYPE svg PUBLIC "-//W3C//DTD SVG 1.1//EN" "http://www.w3.org/Graphics/SVG/1.1/DTD/svg11.dtd">
<svg version="1.1" id="Layer_1" xmlns="http://www.w3.org/2000/svg" xmlns:xlink="http://www.w3.org/1999/xlink" x="0px" y="0px"
	 width="276px" height="204px" viewBox="0 0 276 204" enable-background="new 0 0 276 204" xml:space="preserve">
<path fill="#D3D3D3" d="M12.489,98.174c7.646,10.199,11.478,13.383,17.84,12.746l6.382-1.271c1.9,1.271,5.097,5.091,5.097,8.281
	c0,1.274-2.558,3.186-3.196,3.186c1.92,1.912,3.838,4.464,3.838,7.646h-4.453v2.552c2.535,7.651,10.816,5.735,14.014,11.47
	l7.639,0.642c1.282,1.271,5.739,2.547,6.382,3.186c8.92,5.734,13.375,10.832,26.758,10.832l0.64-2.551h3.179
	c0,1.274,0.639,1.912,1.278,3.188c3.185-0.64,1.9-5.099,5.101-5.099c1.257,1.91,8.278,4.459,10.817,4.459
	c4.465-5.733,10.204-8.281,17.859-10.193c0.623,1.912,6.359,7.012,8.916,5.734c2.552,1.91,3.827,5.099,7.004,5.099
	c0.639,3.187,1.918,5.729,1.918,9.556c0,3.827-3.82,5.1-3.82,8.92c0,3.19,3.82,1.914,5.723,3.19
	c1.926,1.907,1.926,3.825,3.199,5.735c1.265,3.184,3.818,8.287,7.646,8.287h3.179c1.918-1.279,3.194-3.83,5.737-5.104
	c4.463-4.461,12.112-2.551,14.019-5.732c1.924,2.549,5.742,3.182,7.662,4.461c2.534,1.916,4.45,5.098,7.639,6.377h8.283
	c0,1.271-1.285,1.904-1.285,3.18c0,1.279,1.92,1.912,3.201,3.186v-2.547c0.637-0.639,3.818-3.818,5.719-3.818
	c5.101,0,5.738-6.375,10.841-8.927c0,1.271,1.276,1.912,1.276,3.822c0.64-1.91,2.539-1.271,3.823,0
	c-0.642-4.461,3.82-3.185,8.278-4.461c3.822-0.634,4.459-8.284,10.197-9.56c0-2.551,1.918-3.826,3.178-5.733
	c-1.26-1.274-0.62-3.827-2.536-5.103c3.819-3.184,5.103-7.644,8.274-13.379c-1.258-0.637-1.896-2.547-1.896-3.82l0.64-1.276
	c0-0.636,1.258-1.274,1.902-1.908v-1.916c-3.818,1.916-7.005,0-10.844-0.636c3.199-1.273,3.199-3.184,5.102-5.732
	c-5.102-2.552-8.283-1.908-11.461-5.734c1.268,0.633,7.641,2.55,11.461,3.184c0-3.826-6.996-3.184-6.996-7.008
	c0-0.635-1.287-1.912-1.926-2.553c-0.637-0.637-12.093-10.832-12.093-12.105c0-1.271,1.276-0.639,1.896-3.188
	c0,0-1.261-0.637-1.261-1.272h3.181c0-3.187,4.457-5.097,6.379-7.014c-2.559-0.628-7.021-2.546-8.299-4.459h-3.817v4.459h-3.82
	c-1.276-0.628-1.276-3.183-2.543-4.459c-1.276-1.908-10.196-1.276-10.196-5.734c0-1.275,2.543-2.547,4.461-2.547
	c0.635,0,3.178-2.55,3.178-2.55c0.643-1.275,3.178-1.914,3.178-4.464c1.285,0,1.924-3.18,2.562-3.18c2.537,0,3.182,1.272,5.104,3.18
	c-0.646,0.643-1.281,1.918-2.566,1.918c0.645,1.909,1.922,3.183,3.201,3.183v1.913c-0.635,0.637,0.643,1.912,0,2.547
	c8.285-8.282,9.559-7.643,13.383-7.011c1.272-4.458,6.354-4.458,6.998-8.283c8.92,0,7.656-8.286,15.297-8.286
	c0-5.735-5.738-5.096-5.738-10.831c0-0.634,1.277-1.913,1.919-1.913c1.28,0,3.819,0.64,6.382,0v-7.644
	c-1.281-1.277-2.562-3.189-2.562-5.733v-3.824c-1.281,0-1.281-1.275-3.182-1.275c-5.102,0-7.02,4.458-12.115,4.458
	c-6.998,0-10.822-8.918-17.843-11.468c-6.378-1.912-14.019-3.184-15.295-10.202c-7.634,0-8.284-7.645-14.64-9.553
	c-4.481-1.275-6.379-1.275-12.121-3.187l-11.463,1.912c0.627,0.635,0,1.275,0,1.909c0,2.551,5.089,1.916,5.089,5.102
	c0,1.907-1.261,3.183-1.261,5.733c0,1.275,1.261,3.185,2.537,3.826c-1.276,1.91-4.461,3.819-6.365,3.819h-3.836l-0.623,3.191
	c1.259,5.735,2.543,8.918,9.548,8.918c3.196,0,1.916-1.273,5.735-1.273c1.922,0,2.559,1.273,5.101,1.914
	c0,1.269,1.28,2.544,3.178,3.183c0,1.273-3.815,3.821-6.354,3.821c-0.646,0-11.481,5.098-12.12,7.013h-10.185
	c0,3.824,3.185,5.097,3.185,7.645c0,3.188-4.466,7.647-6.378,8.284h-8.922c-3.185,1.275-9.553,5.736-11.463,5.736
	c-3.83,0-17.218-3.826-19.118-5.736h-15.299l-5.738-1.271c-3.82,0.634-10.825-4.464-12.102-8.289c-6.378,0-13.374-5.73-21.681-5.73
	c-0.619,0-4.453-0.639-4.453-1.279c-0.644-1.275-0.644-1.91-0.644-3.185v-2.547c-0.623-0.641-5.72-5.101-5.72-7.645
	c-8.298,0-14.659-2.548-17.841-8.284c-7.654-1.916-0.635,2.543-7.016,5.094c-4.459,0,5.1,7.009-0.639,7.646h-1.896
	c-1.924,0-5.108-1.273-6.386-1.912c-1.281,2.551,1.919,10.833,0.642,11.473c-1.923,0.639-10.197-0.64-10.197,3.185
	c6.374,0.639,3.178,7.009,6.374,7.648v3.189c0,5.092-1.919,7.643-5.097,9.551c-1.277,0.642-5.743-0.63-7.659,1.278
	c-0.639,0.639-1.261,3.19-3.184,3.822c-1.912,0.639-8.921,1.277-8.921,2.551c0,2.55,1.28,3.825,1.904,7.647
	C9.312,92.439,11.85,93.71,12.489,98.174"/>
<circle fill="none" stroke="#BA0600" stroke-width="0.5" stroke-miterlimit="10" cx="97.625" cy="90.375" r="9.25"/>
<circle fill="none" stroke="#BA0600" stroke-width="0.5" stroke-miterlimit="10" cx="97.625" cy="90.375" r="5.437"/>
<circle fill="#BA0600" cx="97.625" cy="90.375" r="1.5"/>
</svg>
